<svg xmlns="http://www.w3.org/2000/svg" xml:space="preserve" width="800" height="800" viewBox="0 0 512 512">
  <path d="M427.023 0H84.977a8.016 8.016 0 0 0-8.017 8.017v495.967a8.016 8.016 0 0 0 8.017 8.017h290.739c32.711 0 59.324-26.612 59.324-59.324V8.017A8.016 8.016 0 0 0 427.023 0z" style="fill:#ecedef"/>
  <path d="M427.023 246.38c-52.539 0-95.132 42.592-95.132 95.132s42.592 95.132 95.132 95.132c2.7 0 5.373-.119 8.017-.339V246.719a96.644 96.644 0 0 0-8.017-.339zM315.858 452.676v-34.205a8.017 8.017 0 0 0-8.017-8.017H8.017A8.017 8.017 0 0 0 0 418.471v34.205C0 485.44 26.56 512 59.324 512h315.858c-32.764 0-59.324-26.56-59.324-59.324zM264.551 59.858H127.733a8.016 8.016 0 0 0-8.017 8.017v162.472a8.016 8.016 0 0 0 8.017 8.017h136.818a8.016 8.016 0 0 0 8.017-8.017V67.875a8.015 8.015 0 0 0-8.017-8.017z" style="fill:#d9dcdf"/>
  <path d="M196.142 153.921c19.156 0 34.739-15.583 34.739-34.739s-15.583-34.739-34.739-34.739-34.739 15.583-34.739 34.739 15.583 34.739 34.739 34.739zM213.244 153.921H179.04c-13.873 0-25.119 11.246-25.119 25.119v59.324h84.443V179.04c-.001-13.873-11.247-25.119-25.12-25.119z" style="fill:#509fe8"/>
  <path d="M384.267 92.994h-85.512a8.016 8.016 0 0 1-8.017-8.017 8.016 8.016 0 0 1 8.017-8.017h85.512a8.016 8.016 0 0 1 8.017 8.017 8.016 8.016 0 0 1-8.017 8.017zM384.267 135.749h-85.512a8.016 8.016 0 0 1-8.017-8.017 8.016 8.016 0 0 1 8.017-8.017h85.512a8.016 8.016 0 0 1 8.017 8.017 8.015 8.015 0 0 1-8.017 8.017zM384.267 178.505h-85.512a8.016 8.016 0 0 1-8.017-8.017 8.016 8.016 0 0 1 8.017-8.017h85.512a8.016 8.016 0 0 1 8.017 8.017 8.015 8.015 0 0 1-8.017 8.017zM384.267 221.261h-85.512c-4.428 0-8.017-3.588-8.017-8.017s3.588-8.017 8.017-8.017h85.512c4.428 0 8.017 3.588 8.017 8.017s-3.588 8.017-8.017 8.017zM161.937 289.67h-8.551c-4.428 0-8.017-3.588-8.017-8.017s3.588-8.017 8.017-8.017h8.551c4.428 0 8.017 3.588 8.017 8.017s-3.588 8.017-8.017 8.017zM315.858 289.67H196.142c-4.428 0-8.017-3.588-8.017-8.017s3.588-8.017 8.017-8.017h119.716c4.428 0 8.017 3.588 8.017 8.017s-3.589 8.017-8.017 8.017zM161.937 332.426h-8.551a8.016 8.016 0 0 1-8.017-8.017 8.016 8.016 0 0 1 8.017-8.017h8.551a8.016 8.016 0 0 1 8.017 8.017 8.015 8.015 0 0 1-8.017 8.017zM315.858 332.426H196.142a8.016 8.016 0 0 1-8.017-8.017 8.016 8.016 0 0 1 8.017-8.017h119.716a8.016 8.016 0 0 1 8.017 8.017 8.016 8.016 0 0 1-8.017 8.017zM161.937 375.182h-8.551a8.016 8.016 0 0 1-8.017-8.017 8.016 8.016 0 0 1 8.017-8.017h8.551a8.016 8.016 0 0 1 8.017 8.017 8.016 8.016 0 0 1-8.017 8.017zM315.858 375.182H196.142a8.016 8.016 0 0 1-8.017-8.017 8.016 8.016 0 0 1 8.017-8.017h119.716a8.016 8.016 0 0 1 8.017 8.017 8.017 8.017 0 0 1-8.017 8.017z" style="fill:#b3b9bf"/>
  <circle cx="427.023" cy="341.511" r="76.96" style="fill:#ffc44f"/>
  <path d="M427.023 426.489c-46.857 0-84.977-38.12-84.977-84.977s38.12-84.977 84.977-84.977S512 294.654 512 341.511s-38.12 84.978-84.977 84.978zm0-153.921c-38.015 0-68.944 30.928-68.944 68.944s30.928 68.944 68.944 68.944 68.944-30.928 68.944-68.944-30.929-68.944-68.944-68.944z" style="fill:#f7b14d"/>
  <path d="M427.023 333.495c-5.01 0-9.086-4.076-9.086-9.086s4.076-9.086 9.086-9.086h17.102a8.016 8.016 0 0 0 8.017-8.017 8.016 8.016 0 0 0-8.017-8.017h-9.086v-9.086c0-4.428-3.588-8.017-8.017-8.017s-8.017 3.588-8.017 8.017v10.405c-9.93 3.354-17.102 12.752-17.102 23.8 0 13.851 11.268 25.119 25.119 25.119 5.01 0 9.086 4.076 9.086 9.086s-4.076 9.086-9.086 9.086H409.92a8.016 8.016 0 0 0-8.017 8.017 8.016 8.016 0 0 0 8.017 8.017h9.086v9.086c0 4.428 3.588 8.017 8.017 8.017s8.017-3.588 8.017-8.017v-10.405c9.93-3.354 17.102-12.752 17.102-23.8 0-13.851-11.268-25.119-25.119-25.119z" style="fill:#c6803f"/>
</svg>
